<?xml version="1.0" ?><svg xmlns="http://www.w3.org/2000/svg" xmlns:xlink="http://www.w3.org/1999/xlink" version="1.1" viewBox="0 0 512 512" style="enable-background:new 0 0 512 512;" xml:space="preserve"><g id="_x30_3_x2C__Rubik_x2C_cube_x2C_freak__x2C_kid_and_baby_x2C__hobbies_and_free_time_x2C__baby_toy_x2C__squares_x2C__gaming"><g><g><path style="fill:#283954;" d="M483.664,292.643c-2.735-4.798-8.84-6.471-13.64-3.737l-58.042,33.078v-60.189l67.945-38.727     c4.798-2.735,6.471-8.842,3.735-13.64c-2.733-4.797-8.841-6.47-13.64-3.736l-58.041,33.082V178.59l63.781-36.35     c4.799-2.735,6.472-8.841,3.737-13.64s-8.84-6.472-13.64-3.737l-63.88,36.406l-52.798-30.094l57.239-32.623     c4.798-2.735,6.471-8.842,3.735-13.64c-2.734-4.799-8.844-6.47-13.64-3.736l-67.529,38.489l-52.797-30.093l57.751-32.915     c4.798-2.735,6.471-8.841,3.735-13.64c-2.733-4.797-8.84-6.473-13.64-3.736l-68.042,38.78l-68.037-38.78     c-4.795-2.733-10.905-1.063-13.64,3.736c-2.735,4.798-1.063,10.905,3.735,13.64l57.746,32.914l-52.79,30.087l-68.03-38.778     c-1.509-0.86-3.226-1.312-4.962-1.312c-5.522,0-9.995,4.477-9.995,10c0,3.8,2.122,7.105,5.245,8.797l57.547,32.802     l-52.815,30.101l-63.876-36.396c-4.798-2.735-10.905-1.062-13.639,3.738c-2.734,4.799-1.061,10.905,3.738,13.639l63.79,36.347     v60.176l-58.04-33.082c-4.796-2.733-10.904-1.062-13.64,3.736c-2.735,4.798-1.063,10.905,3.735,13.64l67.944,38.727v60.189     l-58.041-33.078c-4.798-2.734-10.904-1.06-13.64,3.737c-2.734,4.798-1.062,10.904,3.737,13.64l67.943,38.721v77.98     c0,5.522,4.478,10,10,10s10-4.478,10-10v-66.582l52.993,30.201v77.381c0,5.522,4.478,10,10,10s10-4.478,10-10v-65.983L246,428.2     v72.787c0,5.522,4.478,10,10,10s10-4.478,10-10V428.2l52.991-30.2v65.408c0,5.522,4.478,10,10,10s10-4.478,10-10v-76.806     l52.991-30.2v65.987c0,5.522,4.478,10,10,10s10-4.478,10-10v-77.385l67.944-38.722     C484.726,303.547,486.398,297.441,483.664,292.643z M255.999,244.466l-52.801-30.086l52.805-30.096l52.793,30.092     L255.999,244.466z M193.01,231.594L246,261.787v60.194l-52.99-30.203V231.594z M266,261.787l52.991-30.2v60.19L266,321.981     V261.787z M338.991,220.188l52.991-30.2v60.185l-52.991,30.204V220.188z M381.786,172.779l-52.794,30.088l-52.794-30.093     l52.792-30.089L381.786,172.779z M255.997,101.082l52.797,30.094l-52.791,30.088l-52.796-30.094L255.997,101.082z      M183.012,142.679l52.797,30.094l-52.8,30.094l-52.807-30.089L183.012,142.679z M120.017,189.993l52.993,30.195v60.19     l-52.993-30.205V189.993z M120.017,333.382v-60.187l52.993,30.205v60.184L120.017,333.382z M193.01,374.981v-60.182L246,345.002     v60.178L193.01,374.981z M266,405.18v-60.178l52.991-30.204v60.182L266,405.18z M338.991,363.582v-60.184l52.991-30.204v60.187     L338.991,363.582z"/></g><g><path style="fill:#5596FB;" d="M464.497,113.698L276.093,6.312c-12.396-7.066-27.792-7.065-40.184,0     c-16.886,9.624-165.991,94.603-188.418,107.393c-12.7,7.262-20.472,20.718-20.472,35.242v214.079     c0,14.534,7.848,28.04,20.484,35.25l188.393,107.378c12.537,7.168,27.876,7.051,40.195,0.007L464.5,398.273     c12.633-7.207,20.48-20.713,20.48-35.247V148.947C484.98,134.33,477.1,120.876,464.497,113.698z M464.98,363.026     c0,7.369-3.981,14.219-10.388,17.874L266.176,488.292c-6.292,3.596-14.067,3.592-20.363-0.007L57.41,380.902     c-6.409-3.657-10.391-10.507-10.391-17.876V148.947c0-7.287,3.88-14.153,10.388-17.874     c6.299-3.59,180.397-102.821,188.406-107.386c6.281-3.582,14.088-3.583,20.375,0l188.407,107.388     c6.486,3.694,10.385,10.573,10.385,17.872V363.026z"/></g></g></g><g id="Layer_1"/></svg>